#Comment line ignore any data following # character 
#Hierarchical Translation and Rotation (.htr) file 
[Header]	
#Header keywords are followed by a single value 
FileType HTR		#Single word string
DataType HTRS		#Translation followed by rotation and scale data
FileVersion 1		#integer
NumSegments 84		#integer
NumFrames 2		#integer
DataFrameRate 30		#integer, data frame rate in this file
EulerRotationOrder ZYX
CalibrationUnits mm
RotationUnits Degrees
GlobalAxisofGravity Y
BoneLengthAxis Y
ScaleFactor 1.00
[SegmentNames&Hierarchy]
#CHILD	PARENT
MASTER GLOBAL
root MASTER
chest root
L_mid_tent01 root
R_mid_tent01 root
spine01 root
Bip01_Neck chest
L_humerus chest
R_humerus chest
weapon_bone chest
Bip01_Head Bip01_Neck
eye_left_bone Bip01_Head
eye_right_bone Bip01_Head
L_forearm L_humerus
L_front_hand L_forearm
L_weapon_bone L_forearm
L_front_hand01_01 L_front_hand
L_front_hand02_01 L_front_hand
L_front_hand03_01 L_front_hand
L_front_hand01_02 L_front_hand01_01
L_front_hand02_02 L_front_hand02_01
L_front_hand03_02 L_front_hand03_01
R_forearm R_humerus
R_front_hand R_forearm
R_weapon_bone R_forearm
R_front_hand01_01 R_front_hand
R_front_hand02_01 R_front_hand
R_front_hand03_01 R_front_hand
R_front_hand01_02 R_front_hand01_01
R_front_hand02_02 R_front_hand02_01
R_front_hand03_02 R_front_hand03_01
null_rope01_connect L_mid_tent01
Rope1_Seg01 null_rope01_connect
Rope1_Seg02 Rope1_Seg01
Rope1_Seg03 Rope1_Seg02
Rope1_Seg04 Rope1_Seg03
Rope1_Seg05 Rope1_Seg04
Rope1_Seg06 Rope1_Seg05
Rope1_Seg07 Rope1_Seg06
Rope1_Seg09 Rope1_Seg07
L_mid_hand01 Rope1_Seg09
L_mid_hand02 Rope1_Seg09
L_mid_hand03 Rope1_Seg09
null_rope02_connect R_mid_tent01
Rope2_Seg01 null_rope02_connect
Rope2_Seg02 Rope2_Seg01
Rope2_Seg03 Rope2_Seg02
Rope2_Seg04 Rope2_Seg03
Rope2_Seg05 Rope2_Seg04
Rope2_Seg06 Rope2_Seg05
Rope2_Seg07 Rope2_Seg06
Rope2_Seg09 Rope2_Seg07
R_mid_hand01 Rope2_Seg09
R_mid_hand02 Rope2_Seg09
R_mid_hand03 Rope2_Seg09
spine02 spine01
spine03 spine02
pelvis spine03
null_rope03_connect pelvis
null_rope04_connect pelvis
Rope3_Seg01 null_rope03_connect
Rope3_Seg02 Rope3_Seg01
Rope3_Seg03 Rope3_Seg02
Rope3_Seg04 Rope3_Seg03
Rope3_Seg05 Rope3_Seg04
Rope3_Seg06 Rope3_Seg05
Rope3_Seg07 Rope3_Seg06
Rope3_Seg08 Rope3_Seg07
Rope3_Seg09 Rope3_Seg08
R_rear_hand01 Rope3_Seg09
R_rear_hand02 Rope3_Seg09
R_rear_hand03 Rope3_Seg09
Rope4_Seg01 null_rope04_connect
Rope4_Seg02 Rope4_Seg01
Rope4_Seg03 Rope4_Seg02
Rope4_Seg04 Rope4_Seg03
Rope4_Seg05 Rope4_Seg04
Rope4_Seg06 Rope4_Seg05
Rope4_Seg07 Rope4_Seg06
Rope4_Seg08 Rope4_Seg07
Rope4_Seg09 Rope4_Seg08
L_rear_hand01 Rope4_Seg09
L_rear_hand02 Rope4_Seg09
L_rear_hand03 Rope4_Seg09
[BasePosition]
#SegmentName Tx, Ty, Tz, Rx, Ry, Rz, BoneLength
MASTER 0.000000 0.000000 0.000000 -90.000000 0.000000 0.000000 10.000000 
root 0.000000 0.000000 0.000000 0.000000 0.000000 0.000000 10.000000 
chest 0.000000 0.000000 0.000000 0.000000 0.000000 0.000000 10.000000 
L_mid_tent01 0.000000 0.000000 0.000000 0.000000 0.000000 0.000000 10.000000 
R_mid_tent01 0.000000 0.000000 0.000000 0.000000 0.000000 0.000000 10.000000 
spine01 0.000000 0.000000 0.000000 0.000000 0.000000 0.000000 10.000000 
Bip01_Neck 0.000000 0.000000 0.000000 0.000000 0.000000 0.000000 10.000000 
L_humerus 0.000000 0.000000 0.000000 0.000000 0.000000 0.000000 10.000000 
R_humerus 0.000000 0.000000 0.000000 0.000000 0.000000 0.000000 10.000000 
weapon_bone 0.000000 0.000000 0.000000 0.000000 0.000000 0.000000 10.000000 
Bip01_Head 0.000000 0.000000 0.000000 0.000000 0.000000 0.000000 10.000000 
eye_left_bone 0.000000 0.000000 0.000000 0.000000 0.000000 0.000000 10.000000 
eye_right_bone 0.000000 0.000000 0.000000 0.000000 0.000000 0.000000 10.000000 
L_forearm 0.000000 0.000000 0.000000 0.000000 0.000000 0.000000 10.000000 
L_front_hand 0.000000 0.000000 0.000000 0.000000 0.000000 0.000000 10.000000 
L_weapon_bone 0.000000 0.000000 0.000000 0.000000 0.000000 0.000000 10.000000 
L_front_hand01_01 0.000000 0.000000 0.000000 0.000000 0.000000 0.000000 10.000000 
L_front_hand02_01 0.000000 0.000000 0.000000 0.000000 0.000000 0.000000 10.000000 
L_front_hand03_01 0.000000 0.000000 0.000000 0.000000 0.000000 0.000000 10.000000 
L_front_hand01_02 0.000000 0.000000 0.000000 0.000000 0.000000 0.000000 10.000000 
L_front_hand02_02 0.000000 0.000000 0.000000 0.000000 0.000000 0.000000 10.000000 
L_front_hand03_02 0.000000 0.000000 0.000000 0.000000 0.000000 0.000000 10.000000 
R_forearm 0.000000 0.000000 0.000000 0.000000 0.000000 0.000000 10.000000 
R_front_hand 0.000000 0.000000 0.000000 0.000000 0.000000 0.000000 10.000000 
R_weapon_bone 0.000000 0.000000 0.000000 0.000000 0.000000 0.000000 10.000000 
R_front_hand01_01 0.000000 0.000000 0.000000 0.000000 0.000000 0.000000 10.000000 
R_front_hand02_01 0.000000 0.000000 0.000000 0.000000 0.000000 0.000000 10.000000 
R_front_hand03_01 0.000000 0.000000 0.000000 0.000000 0.000000 0.000000 10.000000 
R_front_hand01_02 0.000000 0.000000 0.000000 0.000000 0.000000 0.000000 10.000000 
R_front_hand02_02 0.000000 0.000000 0.000000 0.000000 0.000000 0.000000 10.000000 
R_front_hand03_02 0.000000 0.000000 0.000000 0.000000 0.000000 0.000000 10.000000 
null_rope01_connect 0.000000 0.000000 0.000000 0.000000 0.000000 0.000000 10.000000 
Rope1_Seg01 0.000000 0.000000 0.000000 0.000000 0.000000 0.000000 10.000000 
Rope1_Seg02 0.000000 0.000000 0.000000 0.000000 0.000000 0.000000 10.000000 
Rope1_Seg03 0.000000 0.000000 0.000000 0.000000 0.000000 0.000000 10.000000 
Rope1_Seg04 0.000000 0.000000 0.000000 0.000000 0.000000 0.000000 10.000000 
Rope1_Seg05 0.000000 0.000000 0.000000 0.000000 0.000000 0.000000 10.000000 
Rope1_Seg06 0.000000 0.000000 0.000000 0.000000 0.000000 0.000000 10.000000 
Rope1_Seg07 0.000000 0.000000 0.000000 0.000000 0.000000 0.000000 10.000000 
Rope1_Seg09 0.000000 0.000000 0.000000 0.000000 0.000000 0.000000 10.000000 
L_mid_hand01 0.000000 0.000000 0.000000 0.000000 0.000000 0.000000 10.000000 
L_mid_hand02 0.000000 0.000000 0.000000 0.000000 0.000000 0.000000 10.000000 
L_mid_hand03 0.000000 0.000000 0.000000 0.000000 0.000000 0.000000 10.000000 
null_rope02_connect 0.000000 0.000000 0.000000 0.000000 0.000000 0.000000 10.000000 
Rope2_Seg01 0.000000 0.000000 0.000000 0.000000 0.000000 0.000000 10.000000 
Rope2_Seg02 0.000000 0.000000 0.000000 0.000000 0.000000 0.000000 10.000000 
Rope2_Seg03 0.000000 0.000000 0.000000 0.000000 0.000000 0.000000 10.000000 
Rope2_Seg04 0.000000 0.000000 0.000000 0.000000 0.000000 0.000000 10.000000 
Rope2_Seg05 0.000000 0.000000 0.000000 0.000000 0.000000 0.000000 10.000000 
Rope2_Seg06 0.000000 0.000000 0.000000 0.000000 0.000000 0.000000 10.000000 
Rope2_Seg07 0.000000 0.000000 0.000000 0.000000 0.000000 0.000000 10.000000 
Rope2_Seg09 0.000000 0.000000 0.000000 0.000000 0.000000 0.000000 10.000000 
R_mid_hand01 0.000000 0.000000 0.000000 0.000000 0.000000 0.000000 10.000000 
R_mid_hand02 0.000000 0.000000 0.000000 0.000000 0.000000 0.000000 10.000000 
R_mid_hand03 0.000000 0.000000 0.000000 0.000000 0.000000 0.000000 10.000000 
spine02 0.000000 0.000000 0.000000 0.000000 0.000000 0.000000 10.000000 
spine03 0.000000 0.000000 0.000000 0.000000 0.000000 0.000000 10.000000 
pelvis 0.000000 0.000000 0.000000 0.000000 0.000000 0.000000 10.000000 
null_rope03_connect 0.000000 0.000000 0.000000 0.000000 0.000000 0.000000 10.000000 
null_rope04_connect 0.000000 0.000000 0.000000 0.000000 0.000000 0.000000 10.000000 
Rope3_Seg01 0.000000 0.000000 0.000000 0.000000 0.000000 0.000000 10.000000 
Rope3_Seg02 0.000000 0.000000 0.000000 0.000000 0.000000 0.000000 10.000000 
Rope3_Seg03 0.000000 0.000000 0.000000 0.000000 0.000000 0.000000 10.000000 
Rope3_Seg04 0.000000 0.000000 0.000000 0.000000 0.000000 0.000000 10.000000 
Rope3_Seg05 0.000000 0.000000 0.000000 0.000000 0.000000 0.000000 10.000000 
Rope3_Seg06 0.000000 0.000000 0.000000 0.000000 0.000000 0.000000 10.000000 
Rope3_Seg07 0.000000 0.000000 0.000000 0.000000 0.000000 0.000000 10.000000 
Rope3_Seg08 0.000000 0.000000 0.000000 0.000000 0.000000 0.000000 10.000000 
Rope3_Seg09 0.000000 0.000000 0.000000 0.000000 0.000000 0.000000 10.000000 
R_rear_hand01 0.000000 0.000000 0.000000 0.000000 0.000000 0.000000 10.000000 
R_rear_hand02 0.000000 0.000000 0.000000 0.000000 0.000000 0.000000 10.000000 
R_rear_hand03 0.000000 0.000000 0.000000 0.000000 0.000000 0.000000 10.000000 
Rope4_Seg01 0.000000 0.000000 0.000000 0.000000 0.000000 0.000000 10.000000 
Rope4_Seg02 0.000000 0.000000 0.000000 0.000000 0.000000 0.000000 10.000000 
Rope4_Seg03 0.000000 0.000000 0.000000 0.000000 0.000000 0.000000 10.000000 
Rope4_Seg04 0.000000 0.000000 0.000000 0.000000 0.000000 0.000000 10.000000 
Rope4_Seg05 0.000000 0.000000 0.000000 0.000000 0.000000 0.000000 10.000000 
Rope4_Seg06 0.000000 0.000000 0.000000 0.000000 0.000000 0.000000 10.000000 
Rope4_Seg07 0.000000 0.000000 0.000000 0.000000 0.000000 0.000000 10.000000 
Rope4_Seg08 0.000000 0.000000 0.000000 0.000000 0.000000 0.000000 10.000000 
Rope4_Seg09 0.000000 0.000000 0.000000 0.000000 0.000000 0.000000 10.000000 
L_rear_hand01 0.000000 0.000000 0.000000 0.000000 0.000000 0.000000 10.000000 
L_rear_hand02 0.000000 0.000000 0.000000 0.000000 0.000000 0.000000 10.000000 
L_rear_hand03 0.000000 0.000000 0.000000 0.000000 0.000000 0.000000 10.000000 
#Beginning of Data. Separated by tabs
#Fr	Tx	Ty	Tz	Rx	Ry	Rz	SF
[MASTER]
32 2483.543213 2790.114502 1878.265747 0.001660 0.001660 0.001660 4180.981445
33 2481.657471 2790.114502 1876.774414 0.001660 0.001660 0.001660 4179.191895
[root]
32 84.207298 -51.398621 304.738861 -11.696205 3.121127 -112.834709 320.309937
33 85.590202 -51.398621 304.733795 -11.690164 3.132054 -112.864006 320.671448
[chest]
32 -84.512650 -34.090519 0.000000 17.364307 10.953781 153.961441 91.129311
33 -84.512650 -34.090519 0.000000 17.588024 10.951777 154.163162 91.129311
[L_mid_tent01]
32 27.299034 22.179153 -249.918701 1.248732 20.026449 83.511452 252.381683
33 27.299032 22.179155 -249.918701 1.365519 20.030172 83.808502 252.381683
[R_mid_tent01]
32 23.228794 24.509907 226.238495 170.137833 -20.686367 69.172348 228.744751
33 23.228794 24.509907 226.238495 170.295654 -20.514214 69.333214 228.744751
[spine01]
32 -0.361383 -0.195265 0.000000 0.001906 0.001369 18.617880 0.410763
33 -0.361383 -0.195265 0.000000 0.001907 0.001368 18.696024 0.410763
[Bip01_Neck]
32 165.484543 71.581718 0.000119 176.643677 -1.657967 43.431911 180.302734
33 165.484543 71.581718 0.000119 176.643677 -1.657967 43.431911 180.302734
[L_humerus]
32 -13.983130 -135.272980 -120.471481 23.916531 66.004189 138.739624 181.680161
33 -13.983130 -135.272980 -120.471481 23.002756 65.436272 138.037766 181.680161
[R_humerus]
32 -13.983309 -135.273102 125.287651 -169.032745 -69.405037 -96.174210 184.909012
33 -13.983309 -135.273102 125.287651 -168.815811 -69.761581 -96.401489 184.909012
[weapon_bone]
32 235.964890 -300.705902 0.000000 0.000000 -89.951546 -128.212341 382.234833
33 235.964890 -300.705902 0.000000 0.000000 -89.951546 -128.212341 382.234833
[Bip01_Head]
32 213.346558 185.986710 8.275822 57.286484 40.519379 -33.427349 283.154205
33 213.346558 185.986740 8.275801 57.286484 40.519379 -33.427349 283.154205
[eye_left_bone]
32 -24.626970 125.451866 -64.772606 0.000000 -90.000000 -99.840431 143.318359
33 -24.626970 125.451866 -64.772606 0.000000 -90.000000 -99.840431 143.318359
[eye_right_bone]
32 -24.626970 125.451866 64.327362 0.000000 -89.980217 80.156380 143.117676
33 -24.626970 125.451866 64.327362 0.000000 -89.965736 80.156380 143.117676
[L_forearm]
32 322.776093 0.000000 -0.000119 0.000063 0.002346 -86.914719 322.776093
33 322.776093 0.000000 -0.000119 0.000062 0.002346 -86.948792 322.776093
[L_front_hand]
32 241.149185 -0.042021 -3.300071 -89.759209 -2.206105 -5.138622 241.171753
33 241.149185 -0.042021 -3.300071 -39.793198 -2.207406 -5.140981 241.171753
[L_weapon_bone]
32 156.183838 0.000000 0.000000 0.000014 0.000007 0.000001 156.183838
33 156.183838 0.000000 0.000000 0.000014 0.000007 0.000001 156.183838
[L_front_hand01_01]
32 86.095154 20.947098 -0.655860 -0.366594 -0.477154 75.385574 88.609184
33 86.095154 20.947098 -0.655860 -0.366594 -0.477154 75.385574 88.609184
[L_front_hand02_01]
32 86.935165 -11.437475 24.513514 154.399796 -59.883835 -61.369587 91.046425
33 86.935165 -11.437475 24.513514 154.399796 -59.883820 -61.369579 91.046425
[L_front_hand03_01]
32 86.637497 -14.123976 -20.424902 -153.913849 58.118122 -62.702866 90.126129
33 86.637497 -14.123976 -20.424902 -153.913864 58.118130 -62.702885 90.126129
[L_front_hand01_02]
32 71.020905 -0.000179 0.000030 0.000979 0.002133 -40.716988 71.020905
33 71.020905 -0.000179 0.000030 0.001165 0.002038 -30.506382 71.020905
[L_front_hand02_02]
32 71.020927 -0.000119 0.000060 0.000979 0.002133 -40.716988 71.020927
33 71.020927 -0.000119 0.000060 0.001165 0.002038 -30.506382 71.020927
[L_front_hand03_02]
32 71.020905 -0.000060 0.000060 0.000979 0.002133 -40.716988 71.020905
33 71.020905 -0.000060 0.000060 0.001165 0.002038 -30.506382 71.020905
[R_forearm]
32 322.776428 -0.000060 0.000030 0.200983 0.068534 -109.982231 322.776428
33 322.776428 -0.000060 0.000030 0.200979 0.068544 -109.988281 322.776428
[R_front_hand]
32 238.847015 -0.006795 2.210259 -2.635298 -10.645461 -26.312506 238.857239
33 238.847015 -0.006795 2.210259 -2.635298 -10.645461 -26.312506 238.857239
[R_weapon_bone]
32 155.664093 0.002503 -0.000030 0.003487 0.001180 -90.988930 155.664078
33 155.664093 0.002503 -0.000030 0.003487 0.001180 -90.988930 155.664078
[R_front_hand01_01]
32 87.624611 14.231146 22.918642 -154.633514 -59.950634 61.746063 91.683487
33 87.624611 14.231146 22.918642 -154.633484 -59.950619 61.746037 91.683487
[R_front_hand02_01]
32 89.356956 14.367283 -19.491137 154.602661 58.302849 63.744389 92.579636
33 89.356956 14.367283 -19.491137 154.602661 58.302856 63.744389 92.579636
[R_front_hand03_01]
32 87.286232 -22.307278 -0.143439 0.162155 -0.423168 -75.767921 90.091743
33 87.286232 -22.307278 -0.143439 0.162155 -0.423168 -75.767906 90.091743
[R_front_hand01_02]
32 71.020905 0.000060 0.000119 0.002323 -0.000334 106.381714 71.020905
33 71.020905 0.000060 0.000119 0.002323 -0.000334 106.381714 71.020905
[R_front_hand02_02]
32 71.020844 -0.000030 -0.000119 0.002323 -0.000334 106.381714 71.020836
33 71.020844 -0.000030 -0.000119 0.002323 -0.000334 106.381714 71.020836
[R_front_hand03_02]
32 71.020905 0.000000 0.000030 0.002323 -0.000334 106.381714 71.020905
33 71.020905 0.000000 0.000030 0.002323 -0.000334 106.381714 71.020905
[null_rope01_connect]
32 328.732483 0.000000 -0.000238 -19.534906 -26.031092 33.593876 328.732483
33 328.732483 0.000000 -0.000238 -19.573727 -26.012218 33.349030 328.732483
[Rope1_Seg01]
32 -0.000012 -0.000121 0.000105 -32.967674 46.850601 137.210129 0.000161
33 -0.000012 -0.000124 0.000104 -32.288895 46.428577 137.919846 0.000162
[Rope1_Seg02]
32 139.999863 -0.000179 0.000000 -11.820054 23.853731 -15.793947 139.999863
33 139.999863 -0.000179 0.000000 -12.304340 24.520109 -16.229916 139.999863
[Rope1_Seg03]
32 139.999924 0.000060 -0.000060 -18.863129 15.866439 -4.988594 139.999924
33 139.999924 0.000060 -0.000060 -19.480352 16.083729 -4.920079 139.999924
[Rope1_Seg04]
32 139.999924 -0.000060 -0.000119 -15.469386 7.585290 0.085382 139.999924
33 139.999924 -0.000060 -0.000119 -15.629162 7.562487 0.162981 139.999924
[Rope1_Seg05]
32 139.999832 0.000119 -0.000060 -25.662373 9.681046 -1.276902 139.999832
33 139.999832 0.000119 -0.000060 -25.705177 9.617423 -1.087915 139.999832
[Rope1_Seg06]
32 139.999954 0.000119 -0.000060 -79.768654 21.967585 4.522938 139.999954
33 139.999954 0.000119 -0.000060 -78.188484 21.814577 4.954634 139.999954
[Rope1_Seg07]
32 139.999985 0.000060 0.000000 -19.506859 -1.337654 22.033049 139.999985
33 139.999985 0.000060 0.000000 -19.599133 -1.207597 22.211355 139.999985
[Rope1_Seg09]
32 121.602913 0.000119 -0.000089 -89.793175 -1.359789 0.847147 121.602913
33 121.602913 0.000119 -0.000089 -89.793175 -1.359789 0.847147 121.602913
[L_mid_hand01]
32 103.859421 1.038730 8.195221 130.544403 -67.584549 -38.866966 104.187431
33 103.859421 1.038730 8.195221 130.544373 -67.584534 -38.866943 104.187431
[L_mid_hand02]
32 105.572853 -4.139662 -10.864139 -168.923172 43.409309 -73.498886 106.211075
33 105.572853 -4.139662 -10.864139 -168.923172 43.409309 -73.498886 106.211075
[L_mid_hand03]
32 104.641464 17.579376 -3.913581 -6.012627 17.808174 74.893669 106.179977
33 104.641464 17.579376 -3.913581 -6.012627 17.808174 74.893669 106.179977
[null_rope02_connect]
32 328.732849 0.000179 -0.000119 -166.046539 1.339109 -43.703224 328.732849
33 328.732849 0.000179 -0.000119 -166.293991 1.296086 -43.568104 328.732849
[Rope2_Seg01]
32 0.000039 0.000200 0.000000 -20.126480 -72.883614 -175.393127 0.000204
33 0.000039 0.000201 0.000000 -21.208405 -73.183701 -174.262299 0.000205
[Rope2_Seg02]
32 139.999741 -0.000060 -0.000119 1.083636 -4.585176 -39.079601 139.999756
33 139.999741 -0.000060 -0.000119 0.628536 -4.443014 -37.914642 139.999756
[Rope2_Seg03]
32 140.000107 0.000030 0.000000 13.747895 -4.809679 -52.920807 140.000107
33 140.000107 0.000030 0.000000 13.314991 -4.520889 -53.326771 140.000107
[Rope2_Seg04]
32 139.999802 0.000000 -0.000060 6.145137 -4.793460 -15.774366 139.999802
33 139.999802 0.000000 -0.000060 6.460393 -4.789398 -16.590679 139.999802
[Rope2_Seg05]
32 139.999985 -0.000060 0.000119 0.905569 -1.747189 -2.177161 139.999985
33 139.999985 -0.000060 0.000119 0.967999 -1.794369 -2.313761 139.999985
[Rope2_Seg06]
32 139.999893 -0.000030 -0.000119 -0.620458 -0.797062 2.318332 139.999893
33 139.999893 -0.000030 -0.000119 -0.608984 -0.856871 2.276526 139.999893
[Rope2_Seg07]
32 139.999893 0.000060 -0.000060 -0.416494 -1.079810 1.855442 139.999893
33 139.999893 0.000060 -0.000060 -0.435108 -1.116350 1.927491 139.999893
[Rope2_Seg09]
32 121.338966 0.000089 -0.000060 33.793236 -1.359788 -0.847141 121.338966
33 121.338966 0.000089 -0.000060 33.793236 -1.359788 -0.847141 121.338966
[R_mid_hand01]
32 104.680779 11.144459 -10.335981 -16.212063 45.237247 70.462852 105.778534
33 104.680779 11.144459 -10.335981 -16.212059 45.237247 70.462852 105.778534
[R_mid_hand02]
32 104.070427 2.443552 8.231699 49.067368 -67.749771 39.286453 104.424065
33 104.070427 2.443552 8.231699 49.067368 -67.749779 39.286465 104.424065
[R_mid_hand03]
32 106.028137 -11.221827 -5.996406 -177.101105 15.551026 -76.585571 106.788818
33 106.028137 -11.221827 -5.996406 -177.101105 15.551026 -76.585571 106.788818
[spine02]
32 129.756927 0.001550 0.000119 0.550460 -4.022170 -15.672313 129.756927
33 129.756927 0.001550 0.000119 0.550767 -4.022128 -15.681063 129.756927
[spine03]
32 78.614105 0.081482 -4.899015 2.009444 3.773427 18.197844 78.766647
33 78.614105 0.081482 -4.899015 2.009388 3.773455 18.196171 78.766647
[pelvis]
32 169.435242 0.051022 0.000000 -0.041531 -0.183741 8.365798 169.435257
33 169.435242 0.051022 0.000000 -0.041016 -0.183856 8.045087 169.435257
[null_rope03_connect]
32 -1.257226 -2.466202 137.391083 -6.985031 -8.319366 83.576355 137.418976
33 -1.257226 -2.466202 137.391083 -6.996546 -8.305284 83.855583 137.418976
[null_rope04_connect]
32 -1.259640 -2.480268 -137.844437 -6.985031 -8.319366 83.576355 137.872513
33 -1.259640 -2.480268 -137.844437 -6.996546 -8.305284 83.855583 137.872513
[Rope3_Seg01]
32 -0.000025 -0.000121 0.000000 23.448029 -50.113159 -78.798195 0.000123
33 -0.000025 -0.000124 0.000000 24.031015 -50.720932 -79.388161 0.000126
[Rope3_Seg02]
32 139.999924 -0.000119 0.000060 0.928280 -1.019021 8.439003 139.999924
33 139.999924 -0.000119 0.000060 0.952014 -0.915175 8.275951 139.999924
[Rope3_Seg03]
32 139.999924 -0.000119 0.000119 -6.782193 -3.375642 43.530743 139.999924
33 139.999924 -0.000119 0.000119 -5.851864 -2.711207 42.489468 139.999924
[Rope3_Seg04]
32 139.999924 0.000119 0.000000 -48.153221 -9.942798 52.148735 139.999924
33 139.999924 0.000119 0.000000 -49.106125 -9.307115 53.832142 139.999924
[Rope3_Seg05]
32 139.999924 -0.000238 0.000060 6.585275 4.025787 -4.273626 139.999924
33 139.999924 -0.000238 0.000060 6.997572 4.098307 -4.776751 139.999924
[Rope3_Seg06]
32 139.999893 -0.000119 -0.000060 -0.194442 -0.539630 0.158368 139.999893
33 139.999893 -0.000119 -0.000060 -0.176834 -0.562014 0.091553 139.999893
[Rope3_Seg07]
32 139.999771 0.000060 -0.000119 0.146468 -0.319932 0.095219 139.999771
33 139.999771 0.000060 -0.000119 0.164708 -0.329781 0.055589 139.999771
[Rope3_Seg08]
32 139.999985 -0.000060 0.000000 0.325510 -0.187673 0.055531 139.999985
33 139.999985 -0.000060 0.000000 0.337914 -0.191316 0.030773 139.999985
[Rope3_Seg09]
32 90.185997 -0.000179 -0.000060 89.793228 -1.359877 -0.847183 90.185997
33 90.185997 -0.000179 -0.000060 89.793228 -1.359877 -0.847183 90.185997
[R_rear_hand01]
32 103.366196 -6.073594 -10.757982 -177.714203 24.565960 -73.910950 104.101845
33 103.366196 -6.073594 -10.757982 -177.714203 24.565960 -73.910950 104.101845
[R_rear_hand02]
32 100.509819 12.039542 -7.992327 -12.874829 36.868488 72.167213 101.543350
33 100.509819 12.039542 -7.992327 -12.874829 36.868488 72.167213 101.543350
[R_rear_hand03]
32 101.539970 5.215704 5.435467 71.484581 -71.816628 21.513813 101.819031
33 101.539970 5.215704 5.435467 71.484581 -71.816628 21.513813 101.819031
[Rope4_Seg01]
32 0.000010 0.000038 -0.000114 -110.051857 68.925865 -103.556633 0.000121
33 0.000010 0.000038 -0.000114 -109.700882 68.831322 -103.204651 0.000121
[Rope4_Seg02]
32 139.999985 0.000060 0.000119 -1.731960 -8.297626 3.766354 139.999985
33 139.999985 0.000060 0.000119 -1.725643 -8.317310 3.795180 139.999985
[Rope4_Seg03]
32 139.999924 0.000000 -0.000238 -1.553825 -14.439217 6.204017 139.999924
33 139.999924 0.000000 -0.000238 -1.542385 -14.520504 6.274116 139.999924
[Rope4_Seg04]
32 139.999985 0.000000 0.000119 1.143070 -24.826960 12.668714 139.999985
33 139.999985 0.000000 0.000119 1.206416 -25.007961 12.904622 139.999985
[Rope4_Seg05]
32 139.999802 -0.000060 -0.000119 8.296606 -22.955570 13.281775 139.999802
33 139.999802 -0.000060 -0.000119 8.389329 -22.873192 13.320559 139.999802
[Rope4_Seg06]
32 139.999924 0.000000 0.000060 4.752318 -10.555331 1.851720 139.999924
33 139.999924 0.000000 0.000060 4.692461 -10.528718 1.721536 139.999924
[Rope4_Seg07]
32 139.999802 0.000000 0.000000 1.190084 -7.245654 -2.381621 139.999802
33 139.999802 0.000000 0.000000 1.237262 -7.284592 -2.356999 139.999802
[Rope4_Seg08]
32 139.999924 0.000000 0.000119 2.243719 -5.063568 0.912552 139.999924
33 139.999924 0.000000 0.000119 2.269453 -5.029558 0.933537 139.999924
[Rope4_Seg09]
32 90.185791 0.000060 0.000060 -135.617828 2.228885 0.850567 90.185791
33 90.185791 0.000060 0.000060 -135.617828 2.228885 0.850567 90.185791
[L_rear_hand01]
32 101.696655 -8.392275 -7.654577 -12.874829 -36.868488 107.832764 102.329041
33 101.696655 -8.392275 -7.654577 -12.874829 -36.868488 107.832764 102.329041
[L_rear_hand02]
32 102.726799 -1.568258 5.773216 71.484589 71.816643 158.486160 102.900848
33 102.726799 -1.568258 5.773216 71.484581 71.816628 158.486160 102.900848
[L_rear_hand03]
32 104.552910 9.721220 -10.420293 -177.714203 -24.565962 -106.089035 105.519653
33 104.552910 9.721220 -10.420293 -177.714203 -24.565960 -106.089035 105.519653
